<svg _ngcontent-cpx-c3="" style="border:solid;" width="400" height="400" viewBox="0 0 400 400"><defs _ngcontent-cpx-c3=""><pattern _ngcontent-cpx-c3="" id="smallGrid" patternUnits="userSpaceOnUse"><path _ngcontent-cpx-c3="" fill="none" stroke="black" d="M  0 L 0 0 0 " stroke-width=""></path></pattern></defs><rect _ngcontent-cpx-c3="" height="100%" width="100%" fill="#7f7df9"></rect><rect _ngcontent-cpx-c3="" fill="url(#smallGrid)" height="100%" id="grille" width="100%"></rect><!--bindings={
  "ng-reflect-ng-for-of": "[object Object],[object Object"
}--><g _ngcontent-cpx-c3="" class="ng-star-inserted"><path _ngcontent-cpx-c3="" stroke-linecap="round" d="M  0 L 0 0 0 " stroke-dasharray="" stroke="black" fill="none" stroke-width="0"></path></g><g _ngcontent-cpx-c3="" class="ng-star-inserted"><path _ngcontent-cpx-c3="" stroke-linecap="round" d="M27,43M92,43 A65 , 55 0 0, 1 92 153 M92,43 A65 , 55 0 0, 0 92 153 M27,43" stroke-dasharray="" stroke="#f13303" fill="#00ffff" stroke-width="3"></path></g><g _ngcontent-cpx-c3="" class="ng-star-inserted"><path _ngcontent-cpx-c3="" stroke-linecap="round" d="M251,55M306.5,55 A55.5 , 51.5 0 0, 1 306.5 158 M306.5,55 A55.5 , 51.5 0 0, 0 306.5 158 M251,55" stroke-dasharray="" stroke="#f13303" fill="#00ffff" stroke-width="3"></path></g><g _ngcontent-cpx-c3="" class="ng-star-inserted"><path _ngcontent-cpx-c3="" stroke-linecap="round" d="M121,240L141,220L141,250L101,250L101,220L141,220M101,220L121,240" stroke-dasharray="" stroke="#f13303" fill="#00ffff" stroke-width="3"></path></g><g _ngcontent-cpx-c3="" class="ng-star-inserted"><path _ngcontent-cpx-c3="" stroke-linecap="round" d="M288,229L303,214L318,229L313,229L313,249L293,249L293,229L313,229" stroke-dasharray="" stroke="#f13303" fill="#00ffff" stroke-width="3"></path></g><g _ngcontent-cpx-c3="" class="ng-star-inserted"><path _ngcontent-cpx-c3="" stroke-linecap="round" d="M158,314L156,314M156,314L155,314M155,314L158,311M158,311L172,298M172,298L179,290M179,290L185,282M185,282L191,273M191,273L195,266M195,266L197,261M197,261L202,254M202,254L206,247M206,247L209,241M209,241L212,232M212,232L216,224M216,224L219,215M219,215L222,207M222,207L227,200M227,200L228,194M228,194L230,190M230,190L232,187M232,187L233,185M233,185L234,184M234,184L235,182M235,182L235,181M235,181L236,181M236,181L236,180M236,180L236,182M236,182L232,187M232,187L230,194M230,194L224,204M224,204L220,212M220,212L216,221M216,221L212,229M212,229L207,239M207,239L202,249M202,249L198,257M198,257L193,266M193,266L190,272M190,272L187,278M187,278L185,282M185,282L182,287M182,287L180,290M180,290L179,293M179,293L179,294M179,294L178,295M178,295L178,296M178,296L178,297M178,297L180,292M180,292L188,275M188,275L192,266M192,266L197,258M197,258L201,246M201,246L204,235M204,235L208,225M208,225L211,217M211,217L213,212M213,212L213,210M213,210L213,209M213,209L214,207M214,207L214,209M214,209L214,213M214,213L214,220M214,220L214,230M214,230L214,249M214,249L214,273M214,273L212,290M212,290L211,301M211,301L211,309M211,309L211,319M211,319L211,325M211,325L211,328M211,328L211,331M211,331L211,333M211,333L211,334M211,334L211,335M211,335L211,336M211,336L212,333M212,333L217,312M217,312L220,295M220,295L221,281M221,281L221,271M221,271L221,265M221,265L221,262M221,262L221,259M221,259L221,257M221,257L221,256M221,256L221,255M221,255L221,254M221,254L221,253M221,253L222,257M222,257L227,267M227,267L231,278M231,278L237,289M237,289L241,297M241,297L243,302M243,302L247,307M247,307L248,309M248,309L250,311M250,311L250,313M250,313L251,313M251,313L251,314M251,314L252,314M252,314L252,315M252,315L253,315M253,315L254,315M254,315L255,315M255,315L256,315M256,315L258,315M258,315L259,315M259,315L260,315M260,315L261,314M261,314L262,314M262,314L263,314M263,314L263,313M263,313L262,311M262,311L260,309M260,309L255,306M255,306L245,301M245,301L234,297M234,297L227,294M227,294L216,292M216,292L206,291M206,291L197,290M197,290L189,290M189,290L185,290M185,290L183,291M183,291L181,291M181,291L179,291M179,291L178,291M178,291L178,292M178,292L181,295M181,295L191,300M191,300L208,307M208,307L236,319M236,319L251,326M251,326L269,335M269,335L284,341M284,341L298,346M298,346L310,349M310,349L326,351M326,351L335,351M335,351L338,351M338,351L341,351M341,351L342,350M342,350L343,350M343,350L345,350M345,350L346,350M346,350L347,350M347,350L348,350M348,350L344,350M344,350L337,350M337,350L328,349M328,349L318,348M318,348L310,346M310,346L299,343M299,343L286,341M286,341L267,339M267,339L248,339M248,339L233,338M233,338L209,338M209,338L170,336M170,336L148,336M148,336L117,333M117,333L153,336M153,336L198,346M198,346L260,358M260,358L304,373M304,373L349,384M349,384L387,395M387,395L409,401M409,401L314,401M314,401L291,398M291,398L264,394M264,394L239,384M239,384L193,302M193,302L150,209M150,209L136,178M136,178L127,158M127,158L121,140M121,140L116,128M116,128L112,120M112,120L108,111M108,111L105,105M105,105L102,102M102,102L100,98M100,98L98,95M98,95L97,94M97,94L78,100M78,100L13,128M13,128" stroke-dasharray="" stroke="#00ffff" fill="#00ffff"></path></g><g _ngcontent-cpx-c3="" class="ng-star-inserted"><path _ngcontent-cpx-c3="" stroke-linecap="round" d="M175,46M211,46 A36 , 62.5 0 0, 1 211 171 M211,46 A36 , 62.5 0 0, 0 211 171 M175,46" stroke-dasharray="" stroke="#00ffff" fill="#00ffff"></path></g></svg>