<svg _ngcontent-sdh-c5="" style="border:solid;" width="681" height="647" viewBox="0 0 681 647"><defs _ngcontent-sdh-c5=""><pattern _ngcontent-sdh-c5="" id="smallGrid" patternUnits="userSpaceOnUse" width="0" height="0"><path _ngcontent-sdh-c5="" fill="none" stroke="black" d="M 0 0 L 0 0 0 0" stroke-width="0"></path></pattern></defs><rect _ngcontent-sdh-c5="" height="100%" width="100%" fill="#ffffff"></rect><rect _ngcontent-sdh-c5="" fill="url(#smallGrid)" height="100%" id="grille" width="100%"></rect><!--bindings={
  "ng-reflect-ng-for-of": ""
}--><g _ngcontent-sdh-c5="" class="ng-star-inserted"><path _ngcontent-sdh-c5="" class="trace" stroke-linecap="round" d="M115,157L135,123M115,157L135,123M115,158L135,124M115,159L135,125M115,159L135,125M116,160L136,126M116,161L136,126M117,162L137,127M117,163L137,128M118,163L138,129M118,164L138,130M119,165L139,131M119,166L139,131M120,167L140,132M121,168L141,133M121,168L141,134M122,169L142,135M122,170L142,135M123,171L143,136M123,172L143,137M124,173L144,138M124,173L144,139M125,174L145,140M125,174L145,140M125,175L145,141M126,176L146,141M126,177L146,142M127,178L147,143M127,179L147,144M128,180L148,145M128,181L148,146M128,182L148,147M129,182L149,148M129,183L149,149M130,184L150,150M130,185L150,151M131,186L151,151M131,187L151,152M131,188L151,153M132,189L152,154M132,190L152,155M133,191L153,156M133,191L153,157M134,192L154,158M134,193L154,158M135,194L155,159M135,195L155,160M136,195L156,161M136,196L156,162M137,197L157,162M138,198L158,163M138,199L158,164M139,200L159,165M139,200L159,166M140,201L160,167M140,202L160,167M141,203L161,168M142,204L162,169M142,204L162,170M143,205L163,170M143,206L163,171M144,207L164,172M145,207L165,173M145,208L165,174M146,209L166,174M146,210L166,175M147,210L167,176M148,211L168,177M148,212L168,177M149,213L169,178M150,214L170,179M150,214L170,180M151,215L171,180M152,216L172,181M152,216L172,182M153,217L173,182M153,218L173,183M154,219L174,184M155,219L175,185M155,220L175,185M156,221L176,186M157,222L177,187M157,222L177,188M158,223L178,188M159,224L179,189M159,224L179,190M160,225L180,191M161,226L181,191M161,227L181,192M162,227L182,193M163,228L183,193M163,229L183,194M164,229L184,195M165,230L185,196M166,231L186,196M166,232L186,197M167,232L187,198M168,233L188,198M168,233L188,199M169,234L189,199M169,235L189,200M170,236L190,201M171,236L191,202M171,237L191,202M172,238L192,203M173,239L193,204M173,239L193,205M174,240L194,206M174,240L194,206M175,241L195,206M175,242L195,207M176,242L196,208M177,243L197,209M178,244L198,209M178,245L198,210M179,245L199,211M180,246L200,211M180,247L200,212M181,247L201,213M182,248L202,213M182,248L202,214M183,249L203,214M183,250L203,215M184,250L204,216M185,251L205,216M185,252L205,217M186,252L206,218M186,253L206,219M187,254L207,219M187,254L207,220M188,254L208,220M189,254L209,220M189,254L209,220M189,255L209,221M189,255L209,221M190,255L210,221M190,255L210,221M190,256L210,222M191,257L211,222M191,257L211,223M192,258L212,223M192,259L212,224M193,259L213,225M194,260L214,225M195,260L215,226M196,261L216,226M197,261L217,226M197,261L217,227M198,262L218,227M198,263L218,228M199,263L219,229M200,264L220,230M200,264L220,230M201,265L221,230M202,265L222,231M203,266L223,231M203,266L223,232M204,267L224,232M205,268L225,233M206,268L226,233M207,269L227,234M208,269L228,234M208,269L228,235M209,270L229,235M210,270L230,236M211,271L231,236M212,271L232,236M212,272L232,237M213,272L233,237M214,272L234,238M215,273L235,238M216,273L236,239M217,274L237,239M218,274L238,240M218,274L238,240M219,275L239,240M220,275L240,240M221,275L241,241M222,276L242,241M223,276L243,241M224,276L244,242M224,276L244,242M225,277L245,242M226,277L246,243M227,278L247,243M228,278L248,243M228,278L248,244M229,278L249,244M230,278L250,244M231,278L251,244M232,278L252,244M232,278L252,244M233,278L253,244M234,278L254,243M235,278L255,243M236,278L256,243M237,277L257,243M238,277L258,243M238,277L258,243M239,277L259,242M240,276L260,242M241,276L261,241M241,275L261,241M242,275L262,240M243,274L263,240M244,274L264,239M245,273L265,239M246,273L266,238M247,272L267,238M247,272L267,237M248,271L268,237M249,271L269,236M250,270L270,235M251,270L271,235M252,269L272,234M253,269L273,234M253,268L273,233M254,268L274,233M255,267L275,232M256,267L276,232M257,266L277,231M258,265L278,231M259,265L279,230M259,264L279,230M260,264L280,229M261,263L281,229M262,263L282,228M263,262L283,228M264,262L284,227M265,261L285,227M265,261L285,226M266,260L286,226M267,260L287,225M268,259L288,225M269,259L289,224M269,258L289,223M270,257L290,222M270,256L290,222M271,255L291,221M272,255L292,220M272,254L292,219M273,253L293,218M274,252L294,218M274,251L294,217M275,251L295,216M275,250L295,215M276,249L296,214M277,248L297,214M277,248L297,213M278,247L298,212M279,246L299,211M279,245L299,211M280,244L300,210M280,244L300,209M281,243L301,208M282,242L302,207M282,241L302,207M283,240L303,206M283,240L303,206M284,240L304,205M284,239L304,204M285,238L305,203M285,237L305,202M286,236L306,202M286,235L306,201M287,235L307,200M288,234L308,199M288,233L308,198M289,232L309,198M289,231L309,197M290,231L310,196M291,230L311,195M291,229L311,194M292,228L312,193M292,227L312,193M293,226L313,192M293,226L313,192M294,226L314,191M294,225L314,190M295,224L315,189M295,223L315,188M296,222L316,188M297,222L317,187M297,221L317,186M298,220L318,185M298,219L318,184M299,218L319,184M300,218L320,183M300,217L320,182M301,216L321,181M301,215L321,180M302,214L322,180M303,214L323,179M303,213L323,178M304,212L324,177M304,211L324,176M305,210L325,176M305,210L325,176M306,210L326,175M306,209L326,174M307,208L327,173M308,207L328,173M308,207L328,172M309,206L329,171M310,205L330,170M310,204L330,170M311,204L331,169M312,203L332,168M312,202L332,168M313,202L333,167M313,201L333,166M314,200L334,165M315,199L335,165M315,198L335,164M316,198L336,163M316,197L336,162M317,196L337,162M318,196L338,161M318,195L338,160M319,194L339,159M319,193L339,158M320,192L340,158M320,191L340,157M321,191L341,156M322,190L342,155M322,189L342,155M323,188L343,154M323,188L343,153M324,187L344,152M324,186L344,151M325,185L345,150M325,184L345,150M325,183L345,149M325,182L345,148M326,181L346,147M326,180L346,146M326,179L346,145M326,179L346,145M326,178L346,144M326,177L346,143M326,176L346,142M326,175L346,141M327,174L347,140M327,173L347,139M327,172L347,138M327,171L347,137M327,171L347,137M327,170L347,136M326,169L346,135M326,168L346,134M326,168L346,133M325,167L345,132M325,166L345,131M325,165L345,131M324,165L344,130M324,164L344,129M323,163L343,129M322,162L342,128M321,162L341,127M321,161L341,126M320,160L340,126M320,160L340,126M319,160L339,125M318,159L338,124M318,159L338,124M317,158L337,123M316,157L336,123M315,157L335,122M314,156L334,121M314,156L334,121M313,155L333,120M312,154L332,120M311,154L331,119M310,153L330,118M310,153L330,118M309,152L329,117M308,151L328,117M308,151L328,117M307,151L327,116M307,150L327,115M306,149L326,115M305,148L325,114M305,148L325,114M304,148L324,113M303,147L323,113M302,147L322,112M302,146L322,112M301,146L321,111M300,145L320,111M299,145L319,110M298,144L318,110M297,144L317,109M296,143L316,109M296,143L316,109M295,143L315,109M294,143L314,109M293,143L313,109M292,143L312,109M291,143L311,109M291,143L311,109M290,144L310,109M289,144L309,109M288,144L308,110M287,144L307,110M286,145L306,110M285,145L305,110M284,145L304,111M284,145L304,111M283,146L303,111M283,147L303,112M282,148L302,113M282,149L302,114M281,149L301,115M281,150L301,116M280,151L300,116M279,152L299,117M279,153L299,118M278,153L298,119M278,154L298,120M277,155L297,120M276,156L296,121M276,157L296,122M275,158L295,123M275,158L295,124M274,159L294,125M274,160L294,125M273,161L293,126M272,162L292,127M272,162L292,128M271,163L291,129M271,164L291,129M270,165L290,130M269,166L289,131M269,166L289,132M269,167L289,133M268,168L288,134M268,169L288,135M268,170L288,136M268,171L288,136M267,172L287,137M267,173L287,138M267,174L287,139M266,175L286,140M266,176L286,141M266,177L286,142M265,178L285,143M265,179L285,144M265,180L285,145M265,181L285,146M264,182L284,147M264,183L284,148M264,184L284,149M263,184L283,150M263,185L283,151M263,186L283,152M263,187L283,153M262,188L282,154M262,189L282,155M262,190L282,156M261,191L281,157M261,192L281,157M261,192L281,158M261,193L281,159M261,194L281,160M261,195L281,161M261,196L281,162M261,197L281,163M261,198L281,164M261,199L281,165M261,200L281,166M261,201L281,167M261,202L281,168M261,203L281,169M261,204L281,170M261,205L281,171M261,206L281,172M261,207L281,173M261,208L281,174M261,209L281,175M261,210L281,176M261,210L281,176M261,211L281,177M262,212L282,178M262,213L282,178M263,214L283,179M263,215L283,180M263,216L283,181M264,217L284,182M264,218L284,183M265,219L285,184M265,219L285,185M265,220L285,186M266,221L286,187M266,222L286,188M267,223L287,189M267,224L287,189M267,225L287,190M268,226L288,191M268,226L288,192M269,227L289,192M269,228L289,193M270,228L290,194M271,229L291,195M272,230L292,195M272,231L292,196M273,231L293,197M274,232L294,197M274,233L294,198M275,233L295,199M276,234L296,199M276,235L296,200M277,236L297,201M278,236L298,202M279,237L299,202M279,238L299,203M280,238L300,204M281,239L301,204M281,240L301,205M282,240L302,206M283,240L303,206M284,241L304,206M285,241L305,206M286,241L306,206M287,241L307,207M288,241L308,207M288,241L308,207M289,241L309,207M290,241L310,207M291,241L311,207M292,241L312,207M293,241L313,207M294,241L314,207M294,241L314,207M295,241L315,206M296,240L316,205M296,239L316,205M297,239L317,204M298,238L318,204M299,238L319,203M299,237L319,203M299,236L319,202M300,235L320,201M300,235L320,200M300,234L320,199M301,233L321,198M301,232L321,197M301,231L321,196M302,230L322,195M302,229L322,195M302,228L322,194M302,227L322,193M302,226L322,192M301,225L321,191M301,224L321,190M301,223L321,189M301,222L321,188M301,221L321,187M301,220L321,186M300,219L320,185M300,218L320,184M300,217L320,183M300,217L320,183M299,217L319,182M299,216L319,181M298,215L318,181M297,214L317,180M296,214L316,179M296,213L316,178M295,212L315,178M294,212L314,177M294,211L314,176M293,210L313,176M292,210L312,175M292,209L312,175M291,209L311,174M290,209L310,174M289,208L309,174M288,208L308,173M287,208L307,173M286,207L306,173M285,207L305,172M284,207L304,172M283,206L303,172M283,206L303,172M282,206L302,171M281,206L301,171M280,205L300,171M279,205L299,170M278,205L298,170M277,204L297,170M276,204L296,169M275,204L295,169M274,203L294,169M273,203L293,168M272,203L292,168M271,202L291,168M270,202L290,167M269,202L289,167M268,201L288,167M267,201L287,166M266,201L286,166M265,200L285,166M264,200L284,166M264,200L284,165M263,200L283,165M262,199L282,165M261,199L281,164M260,199L280,164M259,198L279,164M258,199L278,164M257,199L277,164M256,199L276,164M255,199L275,164M254,199L274,165M253,199L273,165M252,200L272,165M251,200L271,165M250,200L270,165M249,200L269,166M248,200L268,166M247,201L267,166M246,201L266,166M245,201L265,166M244,201L264,166M243,201L263,167M242,201L262,167M241,202L261,167M240,202L260,167M239,202L259,167M238,202L258,168M237,202L257,168M236,203L256,168M235,203L255,168M234,203L254,168M233,203L253,168M232,203L252,169M232,203L252,169M231,204L251,169M230,204L250,170M229,205L249,170M229,205L249,171M228,206L248,171M227,206L247,172M226,207L246,172M225,207L245,173M225,207L245,173M224,208L244,173M224,209L244,174M223,209L243,175M222,210L242,175M221,211L241,176M221,211L241,177M220,212L240,177M219,213L239,178M218,214L238,179M218,214L238,180M217,215L237,180M216,216L236,181M216,216L236,182M215,217L235,182M214,218L234,183M213,218L233,184M213,219L233,184M212,220L232,185M211,220L231,186M210,221L230,186M210,222L230,187M209,222L229,188M208,223L228,188M208,224L228,189M207,224L227,190M207,225L227,191M206,226L226,192M206,227L226,192M205,228L225,193M205,229L225,194M205,230L225,195M204,231L224,196M204,232L224,197M204,233L224,198M203,234L223,199M203,235L223,200M202,235L222,201M202,236L222,202M202,237L222,203M201,238L221,204M201,239L221,204M201,240L221,205M200,241L220,206M200,242L220,207M199,243L219,208M199,244L219,209M199,245L219,210M198,246L218,211M198,246L218,212M198,247L218,213M198,248L218,214M198,249L218,215M198,250L218,216M198,251L218,217M198,252L218,218M198,253L218,219M198,254L218,220M198,255L218,221M198,256L218,222M199,257L219,223M199,258L219,224M199,259L219,225M199,260L219,226M199,261L219,227M199,262L219,228M199,263L219,229M199,264L219,230M199,265L219,231M199,266L219,232M199,267L219,233M199,268L219,234M199,269L219,235M199,270L219,236M199,271L219,237M199,272L219,238M199,273L219,239M199,274L219,240M199,275L219,241M199,276L219,242M200,277L220,243M200,278L220,244M200,279L220,245M200,280L220,246M200,281L220,247M200,282L220,248M200,283L220,249M200,284L220,250M200,285L220,251M200,286L220,252M200,287L220,253M200,287L220,253M200,288L220,254M201,289L221,255M201,290L221,255M202,291L222,256M202,292L222,257M202,293L222,258M203,294L223,259M203,295L223,260M203,296L223,261M204,297L224,262M204,297L224,263M205,298L225,264M205,299L225,265M205,300L225,266M206,301L226,267M206,302L226,267M207,303L227,268M207,304L227,269M207,305L227,270M208,306L228,271M208,307L228,272M209,308L229,273M209,309L229,274M209,309L229,275M210,310L230,276M210,311L230,277M210,312L230,278M211,313L231,278M211,314L231,279M212,315L232,280M212,316L232,281M212,317L232,282M213,318L233,283M213,319L233,284M214,320L234,285M214,321L234,286M214,321L234,287M215,322L235,288M215,323L235,289M216,324L236,290M216,325L236,290M216,326L236,291M217,327L237,292M217,328L237,293M217,329L237,294M218,330L238,295M218,331L238,296M219,332L239,297M219,332L239,298M219,333L239,299M220,334L240,300M220,335L240,301M221,336L241,302M221,337L241,302M221,338L241,303M222,339L242,304M222,340L242,305M222,341L242,306M223,342L243,307M223,343L243,308M224,344L244,309M224,344L244,310M224,345L244,311M225,346L245,312M225,347L245,313M226,348L246,314M226,349L246,314M226,350L246,315M227,351L247,316M227,352L247,317M228,353L248,318M228,354L248,319M228,355L248,320M229,356L249,321M229,356L249,322M229,357L249,323M230,358L250,324M230,359L250,325M231,360L251,326M231,361L251,326M231,362L251,327M232,363L252,328M232,364L252,329M233,365L253,330M233,366L253,331M233,367L253,332M234,368L254,333M234,368L254,334M234,369L254,335M235,370L255,336M235,371L255,337M236,372L256,337M236,373L256,338M236,374L256,339M237,375L257,340M237,375L257,341M238,376L258,341M238,377L258,342M239,378L259,343M240,378L260,344M240,379L260,344M241,380L261,345M242,381L262,346M242,381L262,347M243,382L263,348M243,383L263,348M244,384L264,349M245,384L265,350M245,385L265,351M246,386L266,351M247,387L267,352M247,388L267,353M248,388L268,354M249,389L269,354M249,390L269,355M250,391L270,356M251,391L271,357M251,392L271,357M252,393L272,358M253,394L273,359M253,394L273,360M254,395L274,360M254,396L274,361M255,397L275,362M256,397L276,363M256,398L276,364M257,399L277,364M258,400L278,365M258,400L278,366M259,401L279,367M260,402L280,367M260,403L280,368M261,404L281,369M262,404L282,370M262,405L282,370M263,406L283,371M264,407L284,372M264,407L284,373M265,408L285,373M265,409L285,374M266,410L286,375M267,410L287,376M267,411L287,376M268,412L288,377M269,413L289,378M269,413L289,379M270,414L290,380M271,415L291,380M271,415L291,381M272,416L292,381M273,417L293,382M273,417L293,383M274,418L294,383M275,418L295,384M276,419L296,384M276,420L296,385M277,420L297,386M278,421L298,386M279,422L299,387M280,422L300,388M280,423L300,388M281,424L301,389M282,424L302,389M283,425L303,390M283,425L303,391M284,426L304,391M285,427L305,392M286,427L306,393M287,428L307,393M287,429L307,394M288,429L308,395M289,430L309,395M290,430L310,396M290,431L310,396M291,432L311,397M292,432L312,398M293,433L313,398M294,434L314,399M294,434L314,400M295,435L315,400M296,435L316,401M297,436L317,401M297,437L317,402M298,437L318,403M299,438L319,403M300,439L320,404M301,439L321,405M301,440L321,405M302,441L322,406M303,441L323,407M304,442L324,407M304,442L324,408M305,443L325,408M306,444L326,409M307,444L327,410M308,445L328,410M308,445L328,411M309,446L329,411M310,446L330,412M311,447L331,412M311,448L331,413M312,448L332,413M313,449L333,414M314,449L334,415M315,450L335,415M316,450L336,416M316,451L336,416M317,451L337,417M318,452L338,417M319,452L339,418M320,453L340,418M321,454L341,419M321,454L341,419M322,455L342,420M323,455L343,421M324,456L344,421M325,456L345,422M326,457L346,422M326,457L346,423M327,458L347,423M328,458L348,424M329,459L349,424M330,460L350,425M331,460L351,425M331,461L351,426M332,461L352,427M333,462L353,427M334,462L354,428M335,463L355,428M336,463L356,429M336,464L356,429M337,464L357,430M338,465L358,430M339,465L359,431M340,466L360,431M341,466L361,431M342,466L362,432M342,467L362,432M343,467L363,433M344,468L364,433M345,468L365,434M346,469L366,434M347,469L367,434M348,469L368,435M349,470L369,435M350,470L370,436M351,471L371,436M351,471L371,437M352,472L372,437M353,472L373,437M354,473L374,438M355,473L375,438M356,473L376,439M357,474L377,439M358,474L378,440M359,475L379,440M360,475L380,440M360,475L380,441M361,476L381,441M362,476L382,442M362,477L382,442M363,478L383,443M364,478L384,443M365,479L385,444M366,479L386,445M366,479L386,445M367,480L387,445M368,480L388,446M368,481L388,446M369,482L389,447M370,482L390,448M371,483L391,448M372,483L392,449M373,484L393,449M373,484L393,450M374,485L394,450M375,485L395,451M375,485L395,451M376,486L396,451M377,486L397,452M377,486L397,452M378,486L398,452M378,486L398,452M379,486L399,452M379,486L399,452M379,487L399,453" stroke-dasharray="" stroke="#00ffff" fill="#00ffff" stroke-width="2"></path><script _ngcontent-sdh-c5="" src="canvas-specialise.component.ts"></script></g><!--bindings={
  "ng-reflect-ng-for-of": ""
}--><text _ngcontent-sdh-c5="" fill="black" x="" y="" font-family="Ink Free" text-anchor="start" font-size="25" font-weight="bold" font-style="italic">  </text></svg>